<svg width="45" height="43" viewBox="0 0 45 43" fill="none" xmlns="http://www.w3.org/2000/svg">
<path d="M22.5 42.9991C18.0499 42.9991 13.6998 41.7382 9.99969 39.3758C6.29959 37.0134 3.41571 33.6556 1.71273 29.7271C0.00976247 25.7986 -0.435831 21.4757 0.432336 17.3052C1.3005 13.1347 3.44343 9.30385 6.59011 6.29708C9.73679 3.29031 13.7459 1.24268 18.1105 0.413117C22.475 -0.416448 26.999 0.0093168 31.1104 1.63657C35.2217 3.26382 38.7357 6.01947 41.208 9.55505C43.6804 13.0906 45 17.2474 45 21.4996C44.9932 27.1996 42.6206 32.6644 38.4025 36.6949C34.1843 40.7255 28.4653 42.9927 22.5 42.9991ZM22.5 1.0238C18.2618 1.0238 14.1188 2.22468 10.5949 4.47458C7.07101 6.72449 4.32446 9.92237 2.70258 13.6638C1.0807 17.4053 0.656372 21.5223 1.4832 25.4942C2.31002 29.4661 4.35087 33.1145 7.3477 35.9781C10.3445 38.8417 14.1628 40.7918 18.3195 41.5819C22.4762 42.372 26.7848 41.9665 30.7003 40.4167C34.6159 38.867 37.9626 36.2425 40.3172 32.8753C42.6718 29.5081 43.9286 25.5493 43.9286 21.4996C43.9222 16.0709 41.6625 10.8664 37.6452 7.02778C33.628 3.18915 28.1812 1.02992 22.5 1.0238Z" fill="black"/>
<path d="M35.5591 13.0362L16.5817 7.45732C16.3414 7.37427 16.0862 7.3374 15.8309 7.34883C15.5756 7.36026 15.3253 7.41977 15.0941 7.52392C14.8629 7.62808 14.6556 7.77484 14.4839 7.95578C14.3123 8.13672 14.1798 8.34827 14.0939 8.57829L8.24246 26.7521C8.09816 27.2449 8.15702 27.7718 8.40692 28.2244C8.65683 28.677 9.07877 29.0208 9.58593 29.1852L28.5577 34.7625C29.063 34.8906 29.6007 34.8232 30.0544 34.5751C30.508 34.327 30.8411 33.918 30.9814 33.4368L36.8329 15.263C36.91 15.037 36.9379 14.7984 36.915 14.5617C36.892 14.325 36.8186 14.0953 36.6993 13.8867C36.58 13.6782 36.4173 13.4951 36.2212 13.3489C36.0251 13.2026 35.7998 13.0962 35.5591 13.0362ZM15.856 27.0695L12.5984 26.1119L15.7145 16.4337L18.9721 17.3914L15.856 27.0695ZM17.9297 15.4742L17.9064 15.4673C17.4386 15.3266 17.0483 15.0144 16.821 14.5993C16.5937 14.1841 16.5479 13.6997 16.6936 13.2523C16.8394 12.8048 17.1648 12.4309 17.5985 12.2123C18.0323 11.9937 18.539 11.9483 19.0077 12.0861C19.4765 12.2239 19.8689 12.5336 20.0991 12.9474C20.3293 13.3611 20.3784 13.8452 20.2358 14.2935C20.0931 14.7418 19.7703 15.1179 19.3381 15.3392C18.9058 15.5605 18.3994 15.609 17.9297 15.4742ZM27.7614 30.5695L24.5039 29.6118L26.2077 24.32C26.6159 23.0522 26.4207 22.0466 25.2421 21.7002C24.8726 21.5946 24.4779 21.6012 24.1125 21.719C23.747 21.8369 23.4288 22.0601 23.2018 22.3581C23.0359 22.5785 22.9142 22.8264 22.843 23.0893L21.0682 28.6018L17.8106 27.6441L20.9267 17.966L24.1842 18.9237L23.7506 20.2705C24.2051 19.8675 24.7648 19.5889 25.3709 19.464C25.977 19.3391 26.6071 19.3725 27.195 19.5608C29.3334 20.1894 30.5173 22.0118 29.5824 24.9155L27.7614 30.5695Z" fill="black"/>
</svg>
