<svg width="29" height="28" viewBox="0 0 29 28" fill="none" xmlns="http://www.w3.org/2000/svg">
<path d="M28.7492 3.39796L21.2467 13.9452C21.2335 13.9627 21.223 13.9837 21.2158 14.0069C21.2087 14.0301 21.205 14.0551 21.205 14.0803C21.205 14.1056 21.2087 14.1305 21.2158 14.1538C21.223 14.177 21.2335 14.1979 21.2467 14.2154L26.5108 21.9501C26.6367 22.1254 26.7223 22.3482 26.7569 22.5906C26.7916 22.8329 26.7736 23.084 26.7053 23.3123C26.637 23.5406 26.5215 23.7359 26.3731 23.8738C26.2248 24.0117 26.0503 24.0859 25.8715 24.0872C25.631 24.0865 25.4003 23.9546 25.2298 23.7201L19.9934 16.0131C19.9666 15.9767 19.9306 15.9564 19.8931 15.9564C19.8556 15.9564 19.8196 15.9767 19.7928 16.0131L18.5169 17.7935C17.9945 18.5317 17.3706 19.1182 16.6819 19.5186C15.9931 19.9189 15.2534 20.1249 14.5062 20.1247C13.7449 20.1198 12.9919 19.9053 12.2912 19.4938C11.5905 19.0822 10.9562 18.4818 10.4253 17.7277L9.19955 15.9958C9.17282 15.9594 9.1368 15.939 9.09928 15.939C9.06176 15.939 9.02575 15.9594 8.99902 15.9958L3.77507 23.6855C3.69102 23.8018 3.59119 23.8941 3.48129 23.9571C3.37139 24.0201 3.25359 24.0525 3.13462 24.0525C3.01564 24.0525 2.89784 24.0201 2.78794 23.9571C2.67805 23.8941 2.57821 23.8018 2.49416 23.6855C2.40965 23.5695 2.34258 23.4317 2.29681 23.2798C2.25104 23.1279 2.22749 22.965 2.22749 22.8005C2.22749 22.6359 2.25104 22.473 2.29681 22.3211C2.34258 22.1692 2.40965 22.0314 2.49416 21.9155L7.73815 14.1981C7.76145 14.1604 7.77426 14.1125 7.77426 14.063C7.77426 14.0135 7.76145 13.9656 7.73815 13.9279L0.235631 3.38064C0.216347 3.35385 0.191732 3.33558 0.164916 3.32817C0.1381 3.32076 0.110296 3.32451 0.0850364 3.33899C0.0597766 3.35348 0.0381992 3.37801 0.0230576 3.40948C0.00791602 3.44095 -0.000107799 3.47795 1.09382e-06 3.51574V24.6207C0.00198346 25.4365 0.2374 26.2182 0.654886 26.7951C1.07237 27.3719 1.63804 27.6973 2.22845 27.7H26.7614C27.3518 27.6973 27.9175 27.3719 28.335 26.7951C28.7525 26.2182 28.9879 25.4365 28.9899 24.6207V3.53305C28.9911 3.49377 28.9835 3.45491 28.9682 3.42183C28.9528 3.38874 28.9304 3.36303 28.904 3.34823C28.8777 3.33343 28.8486 3.33028 28.8209 3.33918C28.7932 3.34809 28.7682 3.36861 28.7492 3.39796Z" fill="black"/>
<path d="M14.4984 17.6204C15.007 17.6273 15.5113 17.4928 15.9816 17.2251C16.4518 16.9573 16.8783 16.5617 17.2357 16.0617L28.1624 0.692761C27.7745 0.248773 27.2874 0.00399575 26.7837 0H2.23317C1.72928 0.00226979 1.24174 0.247252 0.854492 0.692761L11.7837 16.0617C12.1379 16.5588 12.5606 16.9529 13.0269 17.2206C13.4931 17.4883 13.9935 17.6243 14.4984 17.6204Z" fill="black"/>
</svg>
