<svg width="22" height="20" viewBox="0 0 22 20" fill="none" xmlns="http://www.w3.org/2000/svg">
<path d="M21.115 4.22621C20.2948 4.95241 18.322 6.04797 17.3439 6.45698C16.2149 6.93694 15.8001 6.92859 15.0011 6.41733C14.3364 5.99998 13.9051 5.59723 13.1415 5.74539C12.3778 5.89355 10.8647 6.90355 9.401 8.19527C7.93734 9.48698 6.80129 10.8184 6.63866 11.5049C6.47603 12.1915 6.92386 12.565 7.39996 13.1535C7.97506 13.8609 7.99156 14.2282 7.44475 15.2277C6.97336 16.0937 5.7501 17.8362 4.92282 18.5666C4.09553 19.2969 3.91641 19.1363 3.46387 18.9839C2.99815 18.8111 2.5509 18.6016 2.12749 18.3579C1.30728 17.8717 0.84768 17.4668 0.52478 16.8575C0.201879 16.2482 -0.163449 15.1171 1.71503 12.156C3.10077 9.8907 4.85589 7.81854 6.92386 6.00624C8.97776 4.17113 11.3262 2.61433 13.8933 1.3861C17.2355 -0.283321 18.5153 0.0484791 19.2035 0.332281C19.8917 0.616083 20.349 1.01883 20.8958 1.75129C21.1715 2.12589 21.4082 2.52193 21.6029 2.9345C21.7584 3.33516 21.9423 3.49793 21.115 4.22621Z" fill="black"/>
</svg>
