<svg width="46" height="44" viewBox="0 0 46 44" fill="none" xmlns="http://www.w3.org/2000/svg">
<path d="M22.6789 43.341C18.1934 43.341 13.8087 42.0701 10.0792 39.6889C6.34968 37.3077 3.44286 33.9232 1.72635 29.9635C0.0098401 26.0037 -0.439296 21.6465 0.435774 17.4428C1.31084 13.2392 3.47081 9.37784 6.64251 6.34716C9.81421 3.31648 13.8552 1.25256 18.2545 0.416402C22.6538 -0.419759 27.2137 0.00939088 31.3577 1.64958C35.5018 3.28977 39.0437 6.06734 41.5357 9.63103C44.0277 13.1947 45.3578 17.3845 45.3578 21.6705C45.351 27.4159 42.9594 32.9241 38.7078 36.9867C34.4562 41.0493 28.6916 43.3345 22.6789 43.341ZM22.6789 1.03194C18.407 1.03194 14.2311 2.24237 10.6792 4.51017C7.12723 6.77797 4.35884 10.0013 2.72407 13.7725C1.0893 17.5437 0.661591 21.6934 1.49499 25.6969C2.32839 29.7004 4.38546 33.3779 7.40613 36.2642C10.4268 39.1506 14.2754 41.1162 18.4652 41.9125C22.655 42.7089 26.9978 42.3002 30.9445 40.7381C34.8912 39.176 38.2645 36.5307 40.6378 33.1367C43.0111 29.7427 44.2779 25.7525 44.2779 21.6705C44.2714 16.1987 41.9937 10.9528 37.9445 7.08366C33.8954 3.21452 28.4053 1.03812 22.6789 1.03194Z" fill="black"/>
<path d="M23.4728 8.15161C20.0579 8.15189 16.7472 9.27503 14.0966 11.3324C11.446 13.3898 9.61708 16.256 8.917 19.4498C8.21691 22.6435 8.68832 25.9702 10.252 28.871C11.8157 31.7718 14.3765 34.0702 17.5042 35.3799C17.4417 34.2868 17.5288 33.1907 17.7632 32.1191C18.0486 30.9645 19.6752 24.3731 19.6752 24.3731C19.3504 23.6656 19.1874 22.8999 19.1972 22.1274C19.1972 20.0212 20.4719 18.4479 22.0653 18.4479C23.4197 18.4479 24.0703 19.4185 24.0703 20.5794C24.0703 21.8799 23.2006 23.8212 22.7558 25.6229C22.6672 25.9567 22.6619 26.3057 22.7404 26.6417C22.8189 26.9778 22.979 27.2916 23.2077 27.5576C23.4364 27.8237 23.7274 28.0347 24.0571 28.1736C24.3869 28.3125 24.7462 28.3754 25.1061 28.3571C27.9211 28.3571 29.8199 24.8997 29.8199 20.8015C29.8199 17.6866 27.6223 15.3583 23.6322 15.3583C19.1242 15.3583 16.3092 18.5747 16.3092 22.1654C16.2649 23.1779 16.615 24.1702 17.2918 24.9504C17.4105 25.0441 17.4951 25.1713 17.5332 25.3138C17.5714 25.4564 17.5612 25.6068 17.5042 25.7434C17.4312 26.0035 17.2719 26.6316 17.1988 26.8853C17.1861 26.9621 17.1544 27.0348 17.1064 27.0975C17.0583 27.1602 16.9954 27.211 16.9226 27.2457C16.8499 27.2804 16.7696 27.2981 16.6883 27.2972C16.607 27.2963 16.5271 27.2769 16.4552 27.2406C14.3772 26.4286 13.4079 24.2589 13.4079 21.8102C13.4079 17.7754 16.9731 12.935 24.0372 12.935C29.7136 12.935 33.4515 16.8619 33.4515 21.0743C33.4515 26.6506 30.205 30.8123 25.4248 30.8123C23.8181 30.8123 22.311 29.9812 21.7931 29.0423C21.7931 29.0423 20.93 32.3158 20.7441 32.9502C20.4007 34.0281 19.8977 35.0535 19.2503 35.9953C21.2958 36.5725 23.4473 36.7228 25.5588 36.4357C27.6703 36.1486 29.6926 35.431 31.4884 34.3315C33.2842 33.232 34.8115 31.7764 35.9668 30.0633C37.1221 28.3502 37.8783 26.4197 38.1842 24.4028C38.49 22.3859 38.3384 20.3297 37.7395 18.3737C37.1406 16.4177 36.1086 14.6076 34.7133 13.0663C33.318 11.5249 31.5921 10.2883 29.6526 9.44036C27.7132 8.59238 25.6056 8.15287 23.4728 8.15161Z" fill="black"/>
</svg>
