<svg width="47" height="44" viewBox="0 0 47 44" fill="none" xmlns="http://www.w3.org/2000/svg">
<path d="M22.6789 43.341C18.1935 43.341 13.8087 42.0701 10.0792 39.6889C6.34967 37.3077 3.44285 33.9232 1.72634 29.9635C0.00982787 26.0037 -0.439292 21.6465 0.435778 17.4428C1.31085 13.2391 3.47081 9.37783 6.64251 6.34715C9.81421 3.31648 13.8552 1.25256 18.2545 0.416402C22.6538 -0.419759 27.2137 0.00939088 31.3577 1.64958C35.5018 3.28977 39.0437 6.06733 41.5357 9.63103C44.0277 13.1947 45.3578 17.3845 45.3578 21.6705C45.351 27.4159 42.9594 32.9241 38.7078 36.9867C34.4561 41.0493 28.6916 43.3345 22.6789 43.341ZM22.6789 1.03194C18.407 1.03194 14.2311 2.24237 10.6792 4.51016C7.12725 6.77796 4.35887 10.0013 2.72409 13.7725C1.08932 17.5437 0.661579 21.6934 1.49498 25.6969C2.32838 29.7004 4.38548 33.3778 7.40615 36.2642C10.4268 39.1506 14.2754 41.1162 18.4652 41.9125C22.655 42.7089 26.9978 42.3002 30.9445 40.7381C34.8912 39.176 38.2645 36.5307 40.6378 33.1367C43.0111 29.7427 44.2779 25.7524 44.2779 21.6705C44.2714 16.1987 41.9937 10.9528 37.9445 7.08366C33.8953 3.21452 28.4053 1.03812 22.6789 1.03194Z" fill="black"/>
<path d="M22.6789 43.341C18.1935 43.341 13.8087 42.0701 10.0792 39.6889C6.34967 37.3077 3.44285 33.9232 1.72634 29.9635C0.00982785 26.0037 -0.439292 21.6465 0.435778 17.4428C1.31085 13.2391 3.47081 9.37783 6.64251 6.34715C9.81421 3.31648 13.8552 1.25256 18.2545 0.416402C22.6538 -0.419759 27.2137 0.00939095 31.3577 1.64958C35.5018 3.28977 39.0437 6.06733 41.5357 9.63103C44.0277 13.1947 45.3578 17.3845 45.3578 21.6705C45.351 27.4159 42.9594 32.9241 38.7078 36.9867C34.4561 41.0493 28.6916 43.3345 22.6789 43.341ZM22.6789 1.03194C18.407 1.03194 14.2311 2.24237 10.6792 4.51016C7.12725 6.77796 4.35887 10.0013 2.72409 13.7725C1.08932 17.5437 0.661579 21.6934 1.49498 25.6969C2.32838 29.7004 4.38548 33.3778 7.40615 36.2642C10.4268 39.1506 14.2754 41.1162 18.4652 41.9125C22.655 42.7089 26.9978 42.3002 30.9445 40.7381C34.8912 39.176 43.4722 30.3022 45.8456 26.9083C48.2189 23.5143 44.2779 25.7524 44.2779 21.6705C44.2714 16.1987 41.9937 10.9528 37.9445 7.08366C33.8953 3.21452 28.4053 1.03812 22.6789 1.03194Z" fill="black"/>
<path d="M35.6382 16.2518L38.338 15.7358C38.338 15.7358 36.0702 18.1608 35.6382 18.3156C35.5979 18.8309 35.5979 19.3483 35.6382 19.8635C30.4544 41.1213 11.3394 31.7307 11.3394 31.7307C18.305 31.8855 18.899 29.1509 18.899 29.1509C14.8492 28.5833 14.0392 26.0551 14.0392 26.0551C14.4026 26.2382 14.8239 26.2869 15.2224 26.1917C15.6209 26.0965 15.9687 25.8641 16.1991 25.5391C11.8253 24.4556 12.4193 20.3795 12.4193 20.3795C13.1989 20.9173 14.1099 21.2549 15.0652 21.3598C14.5792 20.7923 10.4754 16.097 12.9593 13.6719C12.9593 13.6719 15.9831 18.8316 23.9207 19.296L24.4607 19.1928C24.3689 18.8212 24.3326 18.439 24.3527 18.0576C24.3527 16.6208 24.9501 15.2428 26.0134 14.2268C27.0766 13.2108 28.5187 12.64 30.0225 12.64C33.8023 12.64 34.6122 14.7039 34.6122 14.7039L37.3121 13.156C37.2581 13.156 36.9881 15.7358 35.6382 16.2518Z" fill="black"/>
</svg>
