<svg width="56" height="58" viewBox="0 0 56 58" fill="none" xmlns="http://www.w3.org/2000/svg">
<path fill-rule="evenodd" clip-rule="evenodd" d="M55.6712 29.0202C55.6702 23.4735 54.1659 18.0432 51.3364 13.3722C48.5068 8.70127 44.4705 4.98521 39.7052 2.66396C34.94 0.342707 29.6453 -0.486496 24.4481 0.274483C19.2509 1.03546 14.3688 3.35475 10.3798 6.95781C6.39068 10.5609 3.4617 15.2968 1.93957 20.605C0.417433 25.9131 0.365875 31.5712 1.79101 36.9094C3.21614 42.2475 6.05829 47.0422 9.98097 50.7259C13.9036 54.4095 18.7426 56.8278 23.925 57.6945V37.4129H16.9518V29.0202H23.925V22.6242C23.925 15.351 28.025 11.3302 34.2958 11.3302C36.3552 11.3605 38.4097 11.5502 40.4428 11.8977V19.0414H36.9789C33.5701 19.0414 32.5038 21.2779 32.5038 23.5766V29.0214H40.118L38.9021 37.4142H32.5038V57.697C38.9626 56.6156 44.8445 53.1333 49.0914 47.8764C53.3382 42.6196 55.6714 35.9333 55.6712 29.0202Z" fill="#F2F2F2"/>
</svg>
