<svg width="51" height="44" viewBox="0 0 51 44" fill="none" xmlns="http://www.w3.org/2000/svg">
<path d="M45.7588 7.58052L50.7588 6.52336C50.7588 6.52336 46.5588 11.492 45.7588 11.8091C45.6841 12.8648 45.6841 13.9249 45.7588 14.9806C36.1588 58.5355 0.758789 39.2952 0.758789 39.2952C13.6588 39.6124 14.7588 34.0094 14.7588 34.0094C7.25879 32.8466 5.75879 27.6665 5.75879 27.6665C6.43169 28.0418 7.21188 28.1414 7.94995 27.9463C8.68802 27.7513 9.3321 27.2752 9.75879 26.6093C1.65879 24.3893 2.75879 16.0378 2.75879 16.0378C4.20253 17.1397 5.88973 17.8313 7.65878 18.0464C6.75878 16.8835 -0.841211 7.26337 3.75879 2.29473C3.75879 2.29473 9.35878 12.8663 24.0588 13.8177L25.0588 13.6063C24.8887 12.8449 24.8214 12.0619 24.8588 11.2806C24.8588 8.33663 25.965 5.51326 27.9342 3.43158C29.9033 1.3499 32.574 0.18042 35.3588 0.18042C42.3588 0.18042 43.8588 4.40905 43.8588 4.40905L48.8588 1.23758C48.7588 1.23758 48.2588 6.52336 45.7588 7.58052Z" fill="#F2F2F2"/>
</svg>
