<svg width="54" height="58" viewBox="0 0 54 58" fill="none" xmlns="http://www.w3.org/2000/svg">
<path d="M51.1356 12.1867L15.7111 0.665191C15.2625 0.493681 14.7862 0.417543 14.3097 0.441148C13.8331 0.464752 13.3657 0.587635 12.9342 0.80274C12.5028 1.01785 12.1157 1.32093 11.7953 1.69461C11.4749 2.06828 11.2275 2.50518 11.0672 2.98022L0.144513 40.5127C-0.124834 41.5304 -0.0149717 42.6186 0.45152 43.5533C0.918011 44.488 1.70563 45.1981 2.65233 45.5375L38.0663 57.0557C39.0095 57.3202 40.0132 57.1811 40.8601 56.6687C41.7069 56.1562 42.3287 55.3117 42.5906 54.318L53.5133 16.7855C53.6573 16.3188 53.7094 15.8259 53.6665 15.3371C53.6237 14.8483 53.4867 14.3739 53.264 13.9432C53.0412 13.5125 52.7375 13.1345 52.3715 12.8324C52.0055 12.5303 51.5849 12.3106 51.1356 12.1867ZM14.3564 41.1682L8.27568 39.1905L14.0924 19.2033L20.1731 21.181L14.3564 41.1682ZM18.2275 17.2216L18.1838 17.2074C17.3107 16.9168 16.5822 16.2721 16.1578 15.4147C15.7335 14.5572 15.648 13.5569 15.92 12.6329C16.1921 11.7089 16.7995 10.9366 17.6092 10.4851C18.4189 10.0337 19.3648 9.94004 20.2397 10.2246C21.1147 10.5091 21.8472 11.1487 22.2769 12.0032C22.7066 12.8577 22.7984 13.8574 22.5321 14.7833C22.2658 15.7091 21.6632 16.4857 20.8563 16.9427C20.0494 17.3998 19.1041 17.5001 18.2275 17.2216ZM36.5799 48.3963L30.4992 46.4185L33.6796 35.4899C34.4416 32.8717 34.0772 30.795 31.8772 30.0795C31.1875 29.8614 30.4507 29.875 29.7685 30.1184C29.0864 30.3617 28.4924 30.8229 28.0686 31.4382C27.7589 31.8934 27.5318 32.4054 27.3989 32.9483L24.0859 44.3326L18.005 42.3549L23.8218 22.3677L29.9025 24.3454L29.0931 27.1269C29.9414 26.2946 30.9862 25.7192 32.1175 25.4613C33.2489 25.2034 34.4252 25.2725 35.5226 25.6613C39.5142 26.9594 41.7243 30.7231 39.9791 36.7197L36.5799 48.3963Z" fill="#F2F2F2"/>
</svg>
