<svg width="157" height="125" viewBox="0 0 157 125" fill="none" xmlns="http://www.w3.org/2000/svg">
<path d="M110.723 74.2425C103.727 101.997 76.2591 119.191 49.3714 112.646C22.4837 106.101 6.35813 78.2948 13.3539 50.5399C20.3498 22.785 47.8178 5.59117 74.7055 12.1365C101.593 18.6818 117.719 46.4876 110.723 74.2425Z" fill="#9F616A"/>
<path d="M89.2856 77.1539V50.5644H97.1606C99.4106 50.5644 101.42 51.094 103.19 52.1532C104.971 53.2002 106.36 54.6977 107.356 56.6456C108.352 58.5814 108.85 60.785 108.85 63.2565V64.48C108.85 66.9515 108.358 69.149 107.374 71.0726C106.401 72.9962 105.024 74.4876 103.243 75.5468C101.461 76.606 99.4517 77.1417 97.2134 77.1539H89.2856ZM94.5591 55.002V72.7527H97.1079C99.1704 72.7527 100.747 72.0527 101.836 70.6526C102.926 69.2525 103.483 67.2498 103.506 64.6444V63.2382C103.506 60.5354 102.967 58.4901 101.889 57.1022C100.811 55.7021 99.2349 55.002 97.1606 55.002H94.5591Z" fill="#F2F2F2"/>
<path d="M123.387 77.1539C123.153 76.6791 122.983 76.0886 122.877 75.3824C121.647 76.8069 120.047 77.5191 118.079 77.5191C116.215 77.5191 114.668 76.9591 113.438 75.839C112.219 74.7189 111.61 73.3067 111.61 71.6022C111.61 69.5082 112.354 67.9011 113.842 66.781C115.342 65.661 117.504 65.0948 120.329 65.0827H122.667V63.9504C122.667 63.0373 122.438 62.3068 121.981 61.759C121.536 61.2111 120.827 60.9372 119.854 60.9372C118.999 60.9372 118.325 61.1502 117.833 61.5764C117.352 62.0025 117.112 62.5869 117.112 63.3295H112.032C112.032 62.1851 112.372 61.1259 113.051 60.1519C113.731 59.1779 114.692 58.417 115.934 57.8692C117.176 57.3091 118.571 57.0291 120.118 57.0291C122.461 57.0291 124.319 57.6439 125.69 58.8736C127.073 60.091 127.764 61.8077 127.764 64.0235V72.5884C127.776 74.4633 128.028 75.8816 128.52 76.8434V77.1539H123.387ZM119.186 73.4832C119.936 73.4832 120.627 73.3128 121.26 72.9719C121.893 72.6188 122.362 72.1501 122.667 71.5657V68.1689H120.768C118.225 68.1689 116.872 69.0821 116.708 70.9083L116.69 71.2187C116.69 71.8761 116.913 72.4179 117.358 72.844C117.803 73.2701 118.413 73.4832 119.186 73.4832Z" fill="#F2F2F2"/>
<path d="M138.575 69.2281L136.747 71.1274V77.1539H131.667V49.1034H136.747V64.6444L137.731 63.3295L142.6 57.3944H148.7L141.827 65.6305L149.297 77.1539H143.461L138.575 69.2281Z" fill="#F2F2F2"/>
<path d="M156.258 77.1539H151.161V57.3944H156.258V77.1539ZM150.862 52.281C150.862 51.4896 151.114 50.8383 151.618 50.3269C152.133 49.8156 152.831 49.5599 153.709 49.5599C154.577 49.5599 155.268 49.8156 155.784 50.3269C156.299 50.8383 156.557 51.4896 156.557 52.281C156.557 53.0845 156.293 53.7419 155.766 54.2533C155.25 54.7646 154.565 55.0203 153.709 55.0203C152.854 55.0203 152.163 54.7646 151.635 54.2533C151.12 53.7419 150.862 53.0845 150.862 52.281Z" fill="#F2F2F2"/>
</svg>
