<svg width="56" height="60" viewBox="0 0 56 60" fill="none" xmlns="http://www.w3.org/2000/svg">
<path d="M28.2296 0.911987C21.9054 0.91256 15.7741 3.21375 10.8653 7.42907C5.95663 11.6444 2.56958 17.517 1.27306 24.0607C-0.0234586 30.6043 0.849569 37.4203 3.74547 43.3638C6.64138 49.3073 11.3837 54.0163 17.1761 56.6999C17.0604 54.4603 17.2216 52.2143 17.6556 50.0188C18.1843 47.6532 21.1967 34.1481 21.1967 34.1481C20.595 32.6985 20.2932 31.1297 20.3114 29.5468C20.3114 25.2315 22.6721 22.0079 25.623 22.0079C28.1312 22.0079 29.3362 23.9966 29.3362 26.3753C29.3362 29.0399 27.7255 33.0173 26.9017 36.7088C26.7376 37.3926 26.7278 38.1077 26.8732 38.7963C27.0185 39.4849 27.315 40.1277 27.7386 40.6729C28.1622 41.2181 28.701 41.6504 29.3117 41.9349C29.9224 42.2195 30.5878 42.3483 31.2543 42.3109C36.4675 42.3109 39.9839 35.2269 39.9839 26.8302C39.9839 20.4481 35.9142 15.6778 28.5247 15.6778C20.1762 15.6778 14.9629 22.2679 14.9629 29.6248C14.8809 31.6993 15.5293 33.7323 16.7826 35.331C17.0025 35.5228 17.1591 35.7836 17.2298 36.0756C17.3006 36.3676 17.2817 36.6758 17.1761 36.9557C17.0408 37.4887 16.7458 38.7755 16.6105 39.2954C16.587 39.4526 16.5283 39.6016 16.4393 39.73C16.3504 39.8584 16.2337 39.9626 16.099 40.0337C15.9644 40.1049 15.8156 40.1411 15.665 40.1393C15.5145 40.1375 15.3665 40.0977 15.2334 40.0233C11.385 38.3595 9.58989 33.9142 9.58989 28.8969C9.58989 20.6301 16.1925 10.7126 29.2747 10.7126C39.7872 10.7126 46.7095 18.7584 46.7095 27.3891C46.7095 38.8145 40.6971 47.3412 31.8445 47.3412C28.869 47.3412 26.0779 45.6385 25.1189 43.7148C25.1189 43.7148 23.5205 50.4218 23.1762 51.7216C22.5403 53.9301 21.6087 56.0311 20.4098 57.9607C24.1978 59.1434 28.1822 59.4512 32.0927 58.863C36.0032 58.2749 39.7483 56.8046 43.074 54.5518C46.3997 52.2991 49.2282 49.3166 51.3677 45.8066C53.5073 42.2966 54.9077 38.3413 55.4742 34.2089C56.0406 30.0764 55.7598 25.8635 54.6507 21.8559C53.5416 17.8483 51.6303 14.1397 49.0463 10.9817C46.4622 7.82359 43.2659 5.2899 39.6742 3.55249C36.0826 1.81508 32.1794 0.914562 28.2296 0.911987Z" fill="#F2F2F2"/>
</svg>
