<svg width="172" height="173" viewBox="0 0 172 173" fill="none" xmlns="http://www.w3.org/2000/svg">
<path d="M47.2226 172.197C47.2226 172.943 40.2027 172.486 31.5432 172.486C22.8837 172.486 15.8638 172.943 15.8638 172.197C15.8638 171.45 22.8837 165.53 31.5432 165.53C40.2027 165.53 47.2226 171.45 47.2226 172.197Z" fill="#3F3D56"/>
<path d="M41.6892 172.152L55.7082 172.151V171.928C55.7082 171.025 55.5671 170.132 55.2929 169.299C55.0187 168.465 54.6168 167.708 54.1101 167.07C53.6034 166.432 53.0019 165.926 52.3399 165.58C51.6779 165.235 50.9684 165.057 50.2518 165.057H50.2512L41.689 165.058L41.6892 172.152Z" fill="#2F2E41"/>
<path d="M39.1067 172.151L53.1257 172.151V171.927C53.1257 171.025 52.9846 170.132 52.7104 169.298C52.4362 168.465 52.0342 167.707 51.5276 167.069C51.0209 166.431 50.4194 165.925 49.7574 165.58C49.0954 165.235 48.3858 165.057 47.6693 165.057H47.6687L39.1064 165.058L39.1067 172.151Z" fill="#2F2E41"/>
<path d="M83.5278 172.624H0.218659C0.160667 172.624 0.10505 172.599 0.0640436 172.555C0.0230371 172.511 0 172.451 0 172.388C0 172.325 0.0230371 172.265 0.0640436 172.221C0.10505 172.176 0.160667 172.151 0.218659 172.151H83.5278C83.5858 172.151 83.6414 172.176 83.6824 172.221C83.7234 172.265 83.7465 172.325 83.7465 172.388C83.7465 172.451 83.7234 172.511 83.6824 172.555C83.6414 172.599 83.5858 172.624 83.5278 172.624Z" fill="#CBCBCB"/>
<path d="M170.726 3.78369L70.8345 3.78369V65.2663H170.726V3.78369Z" fill="#E6E6E6"/>
<path d="M168.969 8.98608H73.4165V60.0639H168.969V8.98608Z" fill="white"/>
<path d="M171.921 0L70.8345 0V5.67531H171.921V0Z" fill="#6C63FF"/>
<path d="M73.7851 4.25676C74.1925 4.25676 74.5228 3.83327 74.5228 3.31088C74.5228 2.78848 74.1925 2.36499 73.7851 2.36499C73.3777 2.36499 73.0474 2.78848 73.0474 3.31088C73.0474 3.83327 73.3777 4.25676 73.7851 4.25676Z" fill="white"/>
<path d="M76.9212 4.25652C77.4305 4.25652 77.8434 3.83303 77.8434 3.31063C77.8434 2.78823 77.4305 2.36475 76.9212 2.36475C76.4119 2.36475 75.999 2.78823 75.999 3.31063C75.999 3.83303 76.4119 4.25652 76.9212 4.25652Z" fill="white"/>
<path d="M79.8724 4.25652C80.3817 4.25652 80.7945 3.83303 80.7945 3.31063C80.7945 2.78823 80.3817 2.36475 79.8724 2.36475C79.3631 2.36475 78.9502 2.78823 78.9502 3.31063C78.9502 3.83303 79.3631 4.25652 79.8724 4.25652Z" fill="white"/>
<path d="M146.464 17.0261H130.6V52.0239H146.464V17.0261Z" fill="#F2F2F2"/>
<path d="M128.018 17.0261H95.9209V26.485H128.018V17.0261Z" fill="#6C63FF"/>
<path d="M128.018 29.3228H95.9214V39.7275H128.018V29.3228Z" fill="#F2F2F2"/>
<path d="M128.018 42.5649H95.9214V52.0238H128.018V42.5649Z" fill="#F2F2F2"/>
<path d="M51.2809 102.841C51.284 102.134 51.171 101.434 50.9496 100.787C50.7281 100.14 50.4031 99.5609 49.9958 99.0871C49.5885 98.6132 49.1081 98.2557 48.5861 98.0378C48.0641 97.82 47.5123 97.7467 46.9668 97.8228C46.7942 97.848 46.6231 97.8886 46.4549 97.9444L33.2738 83.3832L34.0615 77.9115L27.5647 75.198L25.6059 83.9668C25.3742 85.0192 25.412 86.1398 25.7136 87.1624C26.0152 88.185 26.5646 89.055 27.2802 89.6432L43.4952 102.861C43.4953 103.025 43.502 103.189 43.5152 103.353C43.5744 104.056 43.7482 104.735 44.0252 105.345C44.3023 105.956 44.6762 106.484 45.1227 106.895C45.5691 107.307 46.078 107.591 46.6158 107.732C47.1537 107.872 47.7085 107.864 48.2438 107.708C48.3994 107.664 48.5527 107.607 48.7027 107.537C49.4532 107.188 50.1025 106.55 50.5635 105.711C51.0244 104.871 51.2748 103.87 51.2809 102.841V102.841Z" fill="#9F616A"/>
<path d="M18.4702 119.655H35.5662C35.5662 120.283 53.1858 120.793 53.1858 120.793C53.4624 121.059 53.7144 121.365 53.9371 121.704C54.6064 122.725 54.9722 124.015 54.9699 125.347V126.258C54.9695 127.768 54.5004 129.216 53.6657 130.283C52.8311 131.351 51.6992 131.95 50.5188 131.951H18.4702C17.29 131.95 16.1584 131.35 15.3239 130.282C14.4894 129.215 14.0201 127.768 14.019 126.258V125.347C14.0207 123.838 14.4902 122.391 15.3246 121.324C16.159 120.257 17.2902 119.657 18.4702 119.655V119.655Z" fill="#3F3D56"/>
<path d="M37.2619 131.478H32.4658V169.787H37.2619V131.478Z" fill="#3F3D56"/>
<path d="M46.1166 165.057L50.3658 165.057L52.3875 150.869L46.1157 150.87L46.1166 165.057Z" fill="#9F616A"/>
<path d="M52.6806 156.27L61.3711 131.194C62.0967 129.08 62.1769 126.693 61.5958 124.506C61.0147 122.32 59.815 120.496 58.2355 119.397L39.3854 106.39L30.7837 105.449L22.8493 104.521L22.7921 104.645C22.7189 104.804 21.0129 108.596 22.1661 112.754C23.0408 115.907 25.316 118.37 28.9286 120.075C37.3608 124.053 47.1016 127.454 50.8981 128.731C51.0659 128.786 51.2227 128.886 51.3582 129.025C51.4937 129.164 51.6048 129.338 51.6843 129.536C51.764 129.731 51.8113 129.946 51.8234 130.167C51.8354 130.387 51.8118 130.608 51.7541 130.816L43.6803 154.157C43.596 154.453 43.5656 154.77 43.5916 155.084C43.6175 155.397 43.6991 155.699 43.83 155.965C43.9608 156.232 44.1375 156.456 44.3464 156.621C44.5553 156.786 44.7908 156.887 45.0348 156.916L51.0676 157.481C51.1189 157.487 51.1698 157.49 51.2206 157.49C51.5296 157.49 51.8319 157.375 52.091 157.158C52.3501 156.942 52.5549 156.633 52.6806 156.27V156.27Z" fill="#CBCBCB"/>
<path d="M43.1652 165.057L47.6644 165.057L49.8052 150.869L43.1646 150.87L43.1652 165.057Z" fill="#9F616A"/>
<path d="M49.3761 157.697L58.0515 132.786C58.7758 130.686 58.8559 128.314 58.2758 126.142C57.6957 123.97 56.498 122.158 54.9213 121.066L36.104 108.145L27.5172 107.21L21.3134 106.521L21.3142 106.412C21.2411 106.57 19.5381 110.337 20.6893 114.467C21.5625 117.6 22.059 120.047 25.6653 121.74C34.0828 125.692 43.8067 129.07 47.5966 130.339C47.7641 130.393 47.9207 130.493 48.0559 130.631C48.1912 130.769 48.3022 130.942 48.3815 131.138C48.461 131.333 48.5083 131.546 48.5203 131.765C48.5323 131.984 48.5087 132.204 48.4512 132.411L40.3914 155.598C40.3072 155.892 40.2769 156.207 40.3028 156.518C40.3287 156.829 40.4101 157.129 40.5408 157.394C40.6714 157.659 40.8478 157.881 41.0564 158.045C41.2649 158.209 41.5 158.309 41.7436 158.338L47.7659 158.899C47.817 158.906 47.8679 158.909 47.9186 158.909C48.227 158.909 48.5288 158.794 48.7875 158.579C49.0461 158.364 49.2506 158.057 49.3761 157.697Z" fill="#CBCBCB"/>
<path d="M33.1175 106.596C33.5341 106.223 39.5157 110.196 40.582 107.046C35.6057 91.2961 39.0349 84.495 35.9867 75.4631C35.4498 73.9053 34.641 72.5219 33.621 71.4167C32.6011 70.3115 31.3966 69.5134 30.0979 69.0823L22.1893 68.5769L22.1483 68.602C20.3637 69.7086 18.9083 71.5138 17.9979 73.7501C17.0874 75.9863 16.7705 78.5345 17.0941 81.0167C17.1222 90.8461 21.7677 98.343 20.1433 105.472C20.0752 105.771 20.0554 106.083 20.0849 106.391C20.1145 106.699 20.1928 106.996 20.3153 107.265C20.4341 107.525 20.5937 107.751 20.7841 107.93C20.9746 108.108 21.192 108.236 21.4228 108.304L31.8655 106.541C32.1094 106.614 32.3629 106.621 32.6091 106.561C32.8553 106.5 33.0885 106.374 33.2932 106.191L33.1175 106.596Z" fill="#2F2E41"/>
<path d="M24.9022 64.7933C29.6904 64.7933 33.572 59.7114 33.572 53.4427C33.572 47.1739 29.6904 42.092 24.9022 42.092C20.114 42.092 16.2324 47.1739 16.2324 53.4427C16.2324 59.7114 20.114 64.7933 24.9022 64.7933Z" fill="#9F616A"/>
<path d="M21.859 63.8371C22.3219 64.0987 23.2698 59.3346 22.8452 58.3817C22.2137 56.9647 22.251 56.9749 21.8319 56.0373C21.4127 55.0998 21.3189 53.8166 21.8617 52.9917C22.4046 52.1668 23.6607 52.2762 23.9085 53.3105C23.7491 51.346 25.2534 49.7668 26.7436 49.323C28.2337 48.8793 29.8055 49.1548 31.3038 48.7599C33.0427 48.3016 34.8519 46.4188 34.1581 43.9489C34.039 43.5377 33.8608 43.1593 33.6328 42.8337C32.8312 41.6695 31.7099 41.1724 30.6136 40.6918C28.3328 39.6919 25.9897 38.6794 23.5827 38.7898C19.6278 38.9711 15.8895 42.5025 14.557 47.3158C14.3911 47.9163 14.2626 48.5331 14.1727 49.16C13.3465 54.8981 15.9262 60.5581 20.1161 62.7432L21.859 63.8371Z" fill="#2F2E41"/>
<path d="M67.6214 81.736L68.6153 89.3253C68.6264 89.4099 68.6192 89.4968 68.5944 89.5765L60.797 114.632C60.7661 114.731 60.7097 114.814 60.6372 114.866C60.5647 114.918 60.4804 114.937 60.3985 114.919C60.3166 114.901 60.2419 114.847 60.187 114.767C60.1321 114.687 60.1002 114.585 60.0967 114.478L59.7664 104.409C59.7642 104.342 59.7732 104.276 59.7928 104.214L66.9267 81.6377C66.9564 81.5435 67.0093 81.4644 67.0772 81.4123C67.1451 81.3603 67.2243 81.3381 67.3029 81.3492C67.3815 81.3604 67.4551 81.4041 67.5126 81.4739C67.5701 81.5437 67.6083 81.6358 67.6214 81.736V81.736Z" fill="#3F3D56"/>
<path d="M67.2711 82.2922L68.2517 88.7987L61.0679 111.615L60.1353 104.275L67.2711 82.2922Z" fill="#6C63FF"/>
<path d="M36.8975 114.319C37.0668 115.166 59.2899 116.084 59.5204 115.827C59.7271 115.499 59.9063 115.143 60.0549 114.767C60.2878 114.233 60.5034 113.698 60.5034 113.698L60.1382 104.684L38.2468 101.683C38.2468 101.683 37.2783 109.206 36.9742 112.662C36.9055 113.209 36.8798 113.765 36.8975 114.319Z" fill="#3F3D56"/>
<path opacity="0.1" d="M57.1815 105.828L57.1834 113.506L47.5913 112.633L48.0158 104.993L57.1815 105.828Z" fill="black"/>
<path opacity="0.1" d="M44.5809 106.92L44.6401 106.91L44.1778 110.196L38.7373 109.708L38.923 106.412L44.5809 106.92Z" fill="black"/>
<path opacity="0.1" d="M36.898 114.27C37.0678 115.144 59.3673 116.09 59.5986 115.826C59.8061 115.487 59.9859 115.12 60.135 114.732L36.975 112.561C36.9061 113.126 36.8803 113.698 36.898 114.27Z" fill="black"/>
<path d="M27.8147 100.815L46.7354 105.258C46.7828 105.407 46.8362 105.553 46.8954 105.695C47.1525 106.304 47.5085 106.837 47.9402 107.262C48.372 107.686 48.8698 107.991 49.4014 108.157C49.9351 108.326 50.4913 108.35 51.0328 108.226C51.5743 108.103 52.0886 107.835 52.5413 107.441C53.3613 106.733 53.9349 105.657 54.1445 104.433C54.3541 103.21 54.1839 101.932 53.6687 100.861C53.1536 99.7905 52.3325 99.0084 51.3737 98.6751C50.415 98.3418 49.3913 98.4826 48.5124 99.0687C48.3593 99.172 48.2121 99.2886 48.0719 99.4177L31.6379 92.3532L30.7968 87.0217L23.98 87.5893L24.6863 96.5268C24.772 97.5698 25.1227 98.5502 25.6862 99.3226C26.2498 100.095 26.9962 100.618 27.8147 100.815V100.815Z" fill="#9F616A"/>
<path d="M23.7057 91.2781L33.5724 87.1048L31.2708 78.6002C30.9652 77.4709 30.3592 76.517 29.5599 75.907C28.7607 75.2971 27.8196 75.0704 26.903 75.267V75.267C25.9758 75.4658 25.1345 76.0848 24.5308 77.0122C23.9272 77.9395 23.6012 79.114 23.6116 80.3236L23.7057 91.2781Z" fill="#2F2E41"/>
</svg>
